name pl07_filtered_grf.mot
datacolumns 37
datarows 9
range 0.456000 0.460000
endheader
time	1_ground_force_vx	1_ground_force_vy	1_ground_force_vz	1_ground_force_px	1_ground_force_py	1_ground_force_pz	1_ground_torque_x	1_ground_torque_y	1_ground_torque_z	2_ground_force_vx	2_ground_force_vy	2_ground_force_vz	2_ground_force_px	2_ground_force_py	2_ground_force_pz	2_ground_torque_x	2_ground_torque_y	2_ground_torque_z	3_ground_force_vx	3_ground_force_vy	3_ground_force_vz	3_ground_force_px	3_ground_force_py	3_ground_force_pz	3_ground_torque_x	3_ground_torque_y	3_ground_torque_z	4_ground_force_vx	4_ground_force_vy	4_ground_force_vz	4_ground_force_px	4_ground_force_py	4_ground_force_pz	4_ground_torque_x	4_ground_torque_y	4_ground_torque_z
            0.456000	           -0.000003	            0.000021	            0.000010	            0.137251	            0.000000	            0.190652	            0.000016	            0.000006	           -0.000006	            0.000003	            0.000017	            0.000012	           -0.203925	            0.000000	            0.212187	            0.000004	           -0.000000	            0.000001	            0.196059	           -0.642039	           -1.741891	            0.413394	            1.262977	            1.874353	            0.040466	           -0.012795	            0.054529	           -1.808635	           -1.928407	           -3.090651	           -0.353387	            1.255915	            1.901915	            0.028556	           -0.031111	            0.029538
            0.456500	           -0.000003	            0.000018	            0.000009	            0.137251	            0.000000	            0.190652	            0.000014	            0.000005	           -0.000005	            0.000003	            0.000015	            0.000011	           -0.203925	            0.000000	            0.212187	            0.000003	           -0.000000	            0.000001	            0.184053	           -0.643158	           -1.707867	            0.413399	            1.262973	            1.874325	            0.040415	           -0.011769	            0.054650	           -1.807749	           -1.938542	           -3.054280	           -0.353389	            1.255912	            1.901894	            0.028403	           -0.032438	            0.030048
            0.457000	           -0.000003	            0.000015	            0.000007	            0.137251	            0.000000	            0.190652	            0.000011	            0.000004	           -0.000005	            0.000004	            0.000012	            0.000009	           -0.203925	            0.000000	            0.212187	            0.000003	           -0.000000	            0.000001	            0.171777	           -0.643327	           -1.673307	            0.413404	            1.262969	            1.874296	            0.040372	           -0.010715	            0.054738	           -1.806539	           -1.948343	           -3.017729	           -0.353390	            1.255910	            1.901872	            0.028245	           -0.033771	            0.030565
            0.457500	           -0.000003	            0.000011	            0.000004	            0.137251	            0.000000	            0.190652	            0.000009	            0.000004	           -0.000003	            0.000004	            0.000009	            0.000008	           -0.203925	            0.000000	            0.212187	            0.000002	           -0.000000	            0.000000	            0.159274	           -0.642554	           -1.638302	            0.413410	            1.262964	            1.874268	            0.040337	           -0.009637	            0.054792	           -1.805031	           -1.957791	           -2.981063	           -0.353392	            1.255907	            1.901851	            0.028081	           -0.035108	            0.031087
            0.458000	           -0.000003	            0.000008	            0.000002	            0.137251	            0.000000	            0.190652	            0.000006	            0.000003	           -0.000002	            0.000004	            0.000006	            0.000006	           -0.203925	            0.000000	            0.212187	            0.000002	           -0.000000	            0.000000	            0.146590	           -0.640861	           -1.602941	            0.413415	            1.262959	            1.874239	            0.040311	           -0.008537	            0.054811	           -1.803314	           -1.966880	           -2.944300	           -0.353393	            1.255904	            1.901827	            0.027914	           -0.036445	            0.031613
            0.458500	           -0.000003	            0.000004	           -0.000000	            0.137251	            0.000000	            0.190652	            0.000003	            0.000002	           -0.000001	            0.000004	            0.000002	            0.000004	           -0.203925	            0.000000	            0.212187	            0.000001	           -0.000000	           -0.000000	            0.133777	           -0.638252	           -1.567324	            0.413420	            1.262954	            1.874211	            0.040294	           -0.007419	            0.054793	           -1.801353	           -1.975580	           -2.907551	           -0.353395	            1.255902	            1.901804	            0.027744	           -0.037780	            0.032143
            0.459000	           -0.000003	           -0.000000	           -0.000003	            0.137251	            0.000000	            0.190652	            0.000001	            0.000002	            0.000000	            0.000004	           -0.000001	            0.000002	           -0.203925	            0.000000	            0.212187	            0.000000	           -0.000000	           -0.000001	            0.120887	           -0.634746	           -1.531547	            0.413425	            1.262950	            1.874182	            0.040285	           -0.006284	            0.054739	           -1.799176	           -1.983876	           -2.870881	           -0.353396	            1.255899	            1.901780	            0.027570	           -0.039112	            0.032677
            0.459500	           -0.000003	           -0.000005	           -0.000005	            0.137251	            0.000000	            0.190652	           -0.000003	            0.000001	            0.000001	            0.000004	           -0.000005	            0.000000	           -0.203925	            0.000000	            0.212187	           -0.000000	           -0.000000	           -0.000001	            0.107976	           -0.630366	           -1.495707	            0.413430	            1.262945	            1.874154	            0.040286	           -0.005137	            0.054647	           -1.796813	           -1.991755	           -2.834353	           -0.353398	            1.255897	            1.901757	            0.027396	           -0.040436	            0.033212
            0.460000	           -0.000003	           -0.000009	           -0.000008	            0.137251	            0.000000	            0.190652	           -0.000006	           -0.000000	            0.000003	            0.000004	           -0.000009	           -0.000002	           -0.203925	            0.000000	            0.212187	           -0.000001	           -0.000000	           -0.000002	            0.095100	           -0.625139	           -1.459903	            0.413435	            1.262940	            1.874125	            0.040294	           -0.003980	            0.054517	           -1.794293	           -1.999204	           -2.798030	           -0.353399	            1.255894	            1.901733	            0.027220	           -0.041752	            0.033749
